<svg xmlns="http://www.w3.org/2000/svg" xmlns:xlink="http://www.w3.org/1999/xlink" width="500" zoomAndPan="magnify" viewBox="0 0 375 374.999991" height="500" preserveAspectRatio="xMidYMid meet" version="1.0"><defs><g/><clipPath id="9ac0a2b15a"><path d="M 245.015625 124.796875 L 374.765625 124.796875 L 374.765625 213 L 245.015625 213 Z M 245.015625 124.796875 " clip-rule="nonzero"/></clipPath><clipPath id="ca2905e221"><path d="M 291 217 L 318 217 L 318 243.296875 L 291 243.296875 Z M 291 217 " clip-rule="nonzero"/></clipPath><clipPath id="0dd30c6321"><path d="M 328 217 L 355 217 L 355 243.296875 L 328 243.296875 Z M 328 217 " clip-rule="nonzero"/></clipPath><clipPath id="cd28a1c36e"><path d="M 245.015625 166 L 267 166 L 267 175 L 245.015625 175 Z M 245.015625 166 " clip-rule="nonzero"/></clipPath><clipPath id="bb4d967f9c"><path d="M 245.015625 186 L 273 186 L 273 195 L 245.015625 195 Z M 245.015625 186 " clip-rule="nonzero"/></clipPath><clipPath id="52dc1d3974"><path d="M 245.015625 204 L 281 204 L 281 213 L 245.015625 213 Z M 245.015625 204 " clip-rule="nonzero"/></clipPath></defs><g clip-path="url(#9ac0a2b15a)"><path fill="#00bf63" d="M 373.996094 157.195312 C 373.246094 156.117188 372.015625 155.476562 370.703125 155.476562 L 280.980469 155.476562 L 272.652344 127.660156 C 272.144531 125.960938 270.578125 124.796875 268.804688 124.796875 C 268.804688 124.796875 268.800781 124.796875 268.800781 124.796875 L 249.101562 124.808594 C 246.882812 124.808594 245.085938 126.609375 245.085938 128.828125 C 245.089844 131.042969 246.886719 132.839844 249.105469 132.839844 L 265.8125 132.832031 L 288.757812 209.457031 C 289.265625 211.15625 290.828125 212.320312 292.605469 212.320312 L 352.824219 212.320312 C 354.511719 212.320312 356.015625 211.269531 356.597656 209.6875 L 374.476562 160.875 C 374.925781 159.644531 374.746094 158.269531 373.996094 157.195312 Z M 350.019531 204.289062 L 295.59375 204.289062 L 283.386719 163.511719 L 364.953125 163.511719 Z M 350.019531 204.289062 " fill-opacity="1" fill-rule="nonzero"/></g><g clip-path="url(#ca2905e221)"><path fill="#00bf63" d="M 304.273438 217.078125 L 304.167969 217.078125 C 300.695312 217.105469 297.441406 218.484375 295.003906 220.957031 C 292.570312 223.433594 291.242188 226.707031 291.269531 230.183594 C 291.328125 237.292969 297.160156 243.078125 304.273438 243.078125 L 304.375 243.078125 C 311.542969 243.019531 317.328125 237.140625 317.273438 229.972656 C 317.214844 222.863281 311.382812 217.078125 304.273438 217.078125 Z M 304.3125 235.042969 L 304.273438 235.042969 C 301.554688 235.042969 299.328125 232.832031 299.304688 230.117188 C 299.292969 228.789062 299.800781 227.539062 300.730469 226.59375 C 301.660156 225.648438 302.90625 225.121094 304.230469 225.113281 L 304.273438 225.113281 C 306.988281 225.113281 309.214844 227.320312 309.238281 230.039062 C 309.261719 232.777344 307.050781 235.023438 304.3125 235.042969 Z M 304.3125 235.042969 " fill-opacity="1" fill-rule="nonzero"/></g><g clip-path="url(#0dd30c6321)"><path fill="#00bf63" d="M 341.808594 217.078125 L 341.703125 217.078125 C 338.230469 217.105469 334.976562 218.484375 332.542969 220.957031 C 330.105469 223.433594 328.78125 226.707031 328.808594 230.183594 C 328.867188 237.292969 334.699219 243.078125 341.808594 243.078125 L 341.914062 243.078125 C 349.082031 243.019531 354.867188 237.140625 354.808594 229.972656 C 354.75 222.863281 348.917969 217.078125 341.808594 217.078125 Z M 341.847656 235.042969 L 341.808594 235.042969 C 339.09375 235.042969 336.863281 232.832031 336.839844 230.117188 C 336.832031 228.789062 337.335938 227.539062 338.269531 226.59375 C 339.199219 225.648438 340.441406 225.121094 341.769531 225.113281 L 341.808594 225.113281 C 344.527344 225.113281 346.753906 227.320312 346.773438 230.035156 C 346.796875 232.777344 344.585938 235.023438 341.847656 235.042969 Z M 341.847656 235.042969 " fill-opacity="1" fill-rule="nonzero"/></g><g clip-path="url(#cd28a1c36e)"><path fill="#00bf63" d="M 262.511719 174.574219 C 264.730469 174.574219 266.527344 172.773438 266.527344 170.554688 C 266.527344 168.335938 264.730469 166.539062 262.511719 166.539062 L 249.105469 166.539062 C 246.886719 166.539062 245.085938 168.335938 245.085938 170.554688 C 245.085938 172.773438 246.886719 174.574219 249.105469 174.574219 Z M 262.511719 174.574219 " fill-opacity="1" fill-rule="nonzero"/></g><g clip-path="url(#bb4d967f9c)"><path fill="#00bf63" d="M 249.105469 194.5625 L 268.226562 194.5625 C 270.445312 194.5625 272.246094 192.765625 272.246094 190.546875 C 272.246094 188.328125 270.445312 186.53125 268.226562 186.53125 L 249.105469 186.53125 C 246.886719 186.53125 245.085938 188.328125 245.085938 190.546875 C 245.085938 192.765625 246.886719 194.5625 249.105469 194.5625 Z M 249.105469 194.5625 " fill-opacity="1" fill-rule="nonzero"/></g><g clip-path="url(#52dc1d3974)"><path fill="#00bf63" d="M 276.800781 204.289062 L 249.105469 204.289062 C 246.886719 204.289062 245.085938 206.085938 245.085938 208.304688 C 245.085938 210.523438 246.886719 212.320312 249.105469 212.320312 L 276.800781 212.320312 C 279.019531 212.320312 280.816406 210.523438 280.816406 208.304688 C 280.816406 206.085938 279.019531 204.289062 276.800781 204.289062 Z M 276.800781 204.289062 " fill-opacity="1" fill-rule="nonzero"/></g><g fill="#00bf63" fill-opacity="1"><g transform="translate(0.0000045, 199.379198)"><g><path d="M 7.9375 -8.90625 L 7.921875 -0.4375 C 7.921875 0.144531 7.753906 0.6875 7.421875 1.1875 C 6.953125 1.875 6.269531 2.21875 5.375 2.21875 C 4.3125 2.21875 3.476562 1.785156 2.875 0.921875 C 2.40625 0.253906 2.171875 -0.457031 2.171875 -1.21875 C 2.171875 -4.195312 2.265625 -8.664062 2.453125 -14.625 C 2.640625 -20.59375 2.734375 -25.066406 2.734375 -28.046875 C 2.734375 -28.796875 3 -29.4375 3.53125 -29.96875 C 4.070312 -30.507812 4.742188 -30.78125 5.546875 -30.78125 C 6.347656 -30.78125 7.015625 -30.507812 7.546875 -29.96875 C 8.078125 -29.4375 8.34375 -28.796875 8.34375 -28.046875 C 8.34375 -26.835938 8.28125 -25.207031 8.15625 -23.15625 C 8.007812 -20.769531 7.925781 -19.144531 7.90625 -18.28125 C 8.84375 -19.15625 12.316406 -22.878906 18.328125 -29.453125 C 18.953125 -30.117188 19.664062 -30.453125 20.46875 -30.453125 C 21.226562 -30.453125 21.890625 -30.179688 22.453125 -29.640625 C 23.023438 -29.109375 23.3125 -28.460938 23.3125 -27.703125 C 23.3125 -26.867188 21.71875 -24.710938 18.53125 -21.234375 C 16.175781 -18.671875 13.691406 -16.144531 11.078125 -13.65625 C 12.535156 -12.269531 14.003906 -10.890625 15.484375 -9.515625 C 17.191406 -7.929688 18.734375 -6.628906 20.109375 -5.609375 C 20.785156 -5.109375 21.519531 -4.734375 22.3125 -4.484375 C 23.75 -4.023438 24.46875 -3.144531 24.46875 -1.84375 C 24.46875 -1.269531 24.285156 -0.71875 23.921875 -0.1875 C 23.421875 0.539062 22.734375 0.90625 21.859375 0.90625 C 19.941406 0.90625 17.453125 -0.347656 14.390625 -2.859375 C 13.484375 -3.609375 11.332031 -5.625 7.9375 -8.90625 Z M 7.9375 -8.90625 "/></g></g></g><g fill="#00bf63" fill-opacity="1"><g transform="translate(25.143802, 199.379198)"><g><path d="M 12.1875 0.921875 C 8.976562 0.921875 6.359375 0.160156 4.328125 -1.359375 C 2.066406 -3.054688 0.9375 -5.4375 0.9375 -8.5 C 0.9375 -11.894531 1.832031 -14.765625 3.625 -17.109375 C 5.601562 -19.710938 8.273438 -21.015625 11.640625 -21.015625 C 13.972656 -21.015625 15.910156 -20.632812 17.453125 -19.875 C 19.472656 -18.882812 20.484375 -17.347656 20.484375 -15.265625 C 20.484375 -13.785156 19.660156 -12.476562 18.015625 -11.34375 C 17.265625 -10.8125 15.753906 -10.046875 13.484375 -9.046875 L 6.71875 -6.046875 C 7.351562 -5.347656 8.125 -4.820312 9.03125 -4.46875 C 9.945312 -4.125 11 -3.953125 12.1875 -3.953125 C 13.976562 -3.953125 15.5 -4.320312 16.75 -5.0625 C 17.863281 -5.71875 18.753906 -6.046875 19.421875 -6.046875 C 20.816406 -6.046875 21.515625 -5.367188 21.515625 -4.015625 C 21.515625 -2.492188 20.394531 -1.25 18.15625 -0.28125 C 16.28125 0.519531 14.289062 0.921875 12.1875 0.921875 Z M 11.640625 -16.140625 C 10.390625 -16.140625 9.320312 -15.722656 8.4375 -14.890625 C 7.550781 -14.066406 6.84375 -12.820312 6.3125 -11.15625 C 7.820312 -11.8125 9.328125 -12.460938 10.828125 -13.109375 C 12.640625 -13.921875 14.082031 -14.675781 15.15625 -15.375 C 14.257812 -15.882812 13.085938 -16.140625 11.640625 -16.140625 Z M 11.640625 -16.140625 "/></g></g></g><g fill="#00bf63" fill-opacity="1"><g transform="translate(48.157111, 199.379198)"><g><path d="M 18.890625 -14.5 C 18.773438 -12.445312 17.847656 -11.421875 16.109375 -11.421875 C 14.410156 -11.421875 13.5625 -12.289062 13.5625 -14.03125 L 13.46875 -16.0625 C 10.457031 -15.582031 8.300781 -14.035156 7 -11.421875 L 7.015625 -1.3125 C 7.015625 -0.539062 6.753906 0.09375 6.234375 0.59375 C 5.710938 1.09375 5.046875 1.34375 4.234375 1.34375 C 3.410156 1.34375 2.769531 1.078125 2.3125 0.546875 C 1.882812 0.0546875 1.671875 -0.5625 1.671875 -1.3125 L 1.671875 -14.46875 C 1.671875 -14.882812 1.679688 -15.503906 1.703125 -16.328125 C 1.734375 -17.160156 1.75 -17.78125 1.75 -18.1875 C 1.75 -18.9375 1.972656 -19.5625 2.421875 -20.0625 C 2.867188 -20.570312 3.507812 -20.828125 4.34375 -20.828125 C 5.832031 -20.828125 6.71875 -20.0625 7 -18.53125 C 9.363281 -20.300781 11.992188 -21.1875 14.890625 -21.1875 C 17.578125 -21.1875 18.921875 -19.40625 18.921875 -15.84375 C 18.921875 -15.15625 18.910156 -14.707031 18.890625 -14.5 Z M 18.890625 -14.5 "/></g></g></g><g fill="#00bf63" fill-opacity="1"><g transform="translate(67.93448, 199.379198)"><g><path d="M 19.40625 1.328125 C 18.78125 1.328125 17.800781 0.65625 16.46875 -0.6875 C 15.226562 -0.09375 14.140625 0.351562 13.203125 0.65625 C 12.265625 0.957031 11.46875 1.109375 10.8125 1.109375 C 7.582031 1.109375 5.160156 0.242188 3.546875 -1.484375 C 1.929688 -3.210938 1.125 -5.800781 1.125 -9.25 C 1.125 -12.476562 2.316406 -15.238281 4.703125 -17.53125 C 7.085938 -19.832031 9.941406 -20.984375 13.265625 -20.984375 C 14.535156 -20.984375 16.007812 -20.625 17.6875 -19.90625 C 19.71875 -19.03125 20.734375 -18.015625 20.734375 -16.859375 C 20.734375 -16.378906 20.578125 -15.957031 20.265625 -15.59375 C 20.128906 -15.0625 20.023438 -14.390625 19.953125 -13.578125 C 19.878906 -12.765625 19.84375 -11.816406 19.84375 -10.734375 C 19.84375 -8.171875 20.023438 -6.328125 20.390625 -5.203125 C 20.421875 -5.085938 20.726562 -4.390625 21.3125 -3.109375 C 21.832031 -1.960938 22.09375 -1.304688 22.09375 -1.140625 C 22.09375 -0.429688 21.820312 0.15625 21.28125 0.625 C 20.738281 1.09375 20.113281 1.328125 19.40625 1.328125 Z M 14.421875 -12.46875 C 14.421875 -12.894531 14.445312 -13.382812 14.5 -13.9375 C 14.5625 -14.5 14.65625 -15.117188 14.78125 -15.796875 C 14.507812 -15.929688 14.269531 -16.03125 14.0625 -16.09375 C 13.851562 -16.15625 13.675781 -16.1875 13.53125 -16.1875 C 11.707031 -16.1875 10.109375 -15.472656 8.734375 -14.046875 C 7.367188 -12.617188 6.6875 -10.96875 6.6875 -9.09375 C 6.6875 -7.289062 7.007812 -5.9375 7.65625 -5.03125 C 8.300781 -4.125 9.265625 -3.671875 10.546875 -3.671875 C 11.378906 -3.671875 12.164062 -3.804688 12.90625 -4.078125 C 13.65625 -4.359375 14.359375 -4.769531 15.015625 -5.3125 C 14.617188 -8.5 14.421875 -10.882812 14.421875 -12.46875 Z M 14.421875 -12.46875 "/></g></g></g><g fill="#00bf63" fill-opacity="1"><g transform="translate(90.807089, 199.379198)"><g><path d="M 17.890625 1.421875 C 16.242188 1.421875 15.328125 0.613281 15.140625 -1 C 14.953125 -2.382812 14.765625 -3.773438 14.578125 -5.171875 C 14.378906 -6.640625 14.28125 -8.023438 14.28125 -9.328125 C 14.28125 -9.671875 14.300781 -10.265625 14.34375 -11.109375 C 14.394531 -11.960938 14.421875 -12.5625 14.421875 -12.90625 C 14.421875 -13 14.429688 -13.234375 14.453125 -13.609375 C 14.484375 -13.992188 14.5 -14.3125 14.5 -14.5625 C 14.5 -15.664062 14.207031 -16.21875 13.625 -16.21875 C 12.394531 -16.21875 11.1875 -15.5 10 -14.0625 C 8.8125 -12.625 7.882812 -10.796875 7.21875 -8.578125 C 7.1875 -8.140625 7.125 -7.550781 7.03125 -6.8125 C 6.957031 -6.207031 6.921875 -5.617188 6.921875 -5.046875 C 6.921875 -4.671875 6.960938 -4.101562 7.046875 -3.34375 C 7.128906 -2.59375 7.171875 -2.03125 7.171875 -1.65625 C 7.171875 -0.882812 6.90625 -0.25 6.375 0.25 C 5.851562 0.75 5.1875 1 4.375 1 C 3.570312 1 2.910156 0.75 2.390625 0.25 C 1.867188 -0.25 1.609375 -0.882812 1.609375 -1.65625 C 1.609375 -2.03125 1.566406 -2.59375 1.484375 -3.34375 C 1.398438 -4.101562 1.359375 -4.671875 1.359375 -5.046875 C 1.359375 -6.328125 1.453125 -8.113281 1.640625 -10.40625 C 1.835938 -12.695312 1.9375 -14.488281 1.9375 -15.78125 C 1.9375 -16.1875 1.910156 -16.785156 1.859375 -17.578125 C 1.816406 -18.378906 1.796875 -18.972656 1.796875 -19.359375 C 1.796875 -20.109375 2.066406 -20.726562 2.609375 -21.21875 C 3.148438 -21.707031 3.816406 -21.953125 4.609375 -21.953125 C 6.359375 -21.953125 7.296875 -20.898438 7.421875 -18.796875 L 7.4375 -18.578125 C 9.394531 -20.546875 11.457031 -21.53125 13.625 -21.53125 C 16.164062 -21.53125 17.914062 -20.472656 18.875 -18.359375 C 19.519531 -16.929688 19.84375 -14.804688 19.84375 -11.984375 L 19.84375 -10.546875 C 19.832031 -9.929688 19.828125 -9.5 19.828125 -9.25 C 19.828125 -8.195312 19.96875 -6.847656 20.25 -5.203125 C 20.539062 -3.554688 20.6875 -2.21875 20.6875 -1.1875 C 20.6875 -0.4375 20.414062 0.179688 19.875 0.671875 C 19.34375 1.171875 18.679688 1.421875 17.890625 1.421875 Z M 17.890625 1.421875 "/></g></g></g><g fill="#00bf63" fill-opacity="1"><g transform="translate(112.353166, 199.379198)"><g><path d="M 9.390625 -24.0625 C 8.535156 -24.0625 7.796875 -24.347656 7.171875 -24.921875 C 6.546875 -25.503906 6.234375 -26.21875 6.234375 -27.0625 C 6.234375 -27.90625 6.546875 -28.617188 7.171875 -29.203125 C 7.796875 -29.785156 8.535156 -30.078125 9.390625 -30.078125 C 10.242188 -30.078125 10.984375 -29.785156 11.609375 -29.203125 C 12.242188 -28.617188 12.5625 -27.90625 12.5625 -27.0625 C 12.5625 -26.21875 12.242188 -25.503906 11.609375 -24.921875 C 10.984375 -24.347656 10.242188 -24.0625 9.390625 -24.0625 Z M 8.421875 3.765625 C 8.421875 2.359375 8.191406 -1.351562 7.734375 -7.375 C 7.285156 -13.394531 7.0625 -16.96875 7.0625 -18.09375 C 7.0625 -18.894531 7.296875 -19.617188 7.765625 -20.265625 C 8.304688 -20.984375 9.015625 -21.34375 9.890625 -21.34375 C 10.503906 -21.34375 11.117188 -21.140625 11.734375 -20.734375 C 12.410156 -20.273438 12.757812 -19.75 12.78125 -19.15625 C 12.945312 -16.59375 13.171875 -12.875 13.453125 -8 C 13.804688 -1.5 13.984375 2.484375 13.984375 3.953125 C 13.984375 5.898438 13.375 7.6875 12.15625 9.3125 C 10.800781 11.101562 9.117188 12 7.109375 12 C 3.867188 12 1.210938 9.707031 -0.859375 5.125 C -1.066406 4.6875 -1.171875 4.269531 -1.171875 3.875 C -1.171875 3.144531 -0.875 2.507812 -0.28125 1.96875 C 0.289062 1.46875 0.953125 1.21875 1.703125 1.21875 C 2.566406 1.21875 3.328125 1.679688 3.984375 2.609375 C 4.460938 3.472656 4.953125 4.335938 5.453125 5.203125 C 5.984375 6.128906 6.535156 6.59375 7.109375 6.59375 C 7.804688 6.59375 8.242188 5.648438 8.421875 3.765625 Z M 8.421875 3.765625 "/></g></g></g><g fill="#00bf63" fill-opacity="1"><g transform="translate(128.9549, 199.379198)"><g><path d="M 19.40625 1.328125 C 18.78125 1.328125 17.800781 0.65625 16.46875 -0.6875 C 15.226562 -0.09375 14.140625 0.351562 13.203125 0.65625 C 12.265625 0.957031 11.46875 1.109375 10.8125 1.109375 C 7.582031 1.109375 5.160156 0.242188 3.546875 -1.484375 C 1.929688 -3.210938 1.125 -5.800781 1.125 -9.25 C 1.125 -12.476562 2.316406 -15.238281 4.703125 -17.53125 C 7.085938 -19.832031 9.941406 -20.984375 13.265625 -20.984375 C 14.535156 -20.984375 16.007812 -20.625 17.6875 -19.90625 C 19.71875 -19.03125 20.734375 -18.015625 20.734375 -16.859375 C 20.734375 -16.378906 20.578125 -15.957031 20.265625 -15.59375 C 20.128906 -15.0625 20.023438 -14.390625 19.953125 -13.578125 C 19.878906 -12.765625 19.84375 -11.816406 19.84375 -10.734375 C 19.84375 -8.171875 20.023438 -6.328125 20.390625 -5.203125 C 20.421875 -5.085938 20.726562 -4.390625 21.3125 -3.109375 C 21.832031 -1.960938 22.09375 -1.304688 22.09375 -1.140625 C 22.09375 -0.429688 21.820312 0.15625 21.28125 0.625 C 20.738281 1.09375 20.113281 1.328125 19.40625 1.328125 Z M 14.421875 -12.46875 C 14.421875 -12.894531 14.445312 -13.382812 14.5 -13.9375 C 14.5625 -14.5 14.65625 -15.117188 14.78125 -15.796875 C 14.507812 -15.929688 14.269531 -16.03125 14.0625 -16.09375 C 13.851562 -16.15625 13.675781 -16.1875 13.53125 -16.1875 C 11.707031 -16.1875 10.109375 -15.472656 8.734375 -14.046875 C 7.367188 -12.617188 6.6875 -10.96875 6.6875 -9.09375 C 6.6875 -7.289062 7.007812 -5.9375 7.65625 -5.03125 C 8.300781 -4.125 9.265625 -3.671875 10.546875 -3.671875 C 11.378906 -3.671875 12.164062 -3.804688 12.90625 -4.078125 C 13.65625 -4.359375 14.359375 -4.769531 15.015625 -5.3125 C 14.617188 -8.5 14.421875 -10.882812 14.421875 -12.46875 Z M 14.421875 -12.46875 "/></g></g></g><g fill="#00bf63" fill-opacity="1"><g transform="translate(151.827509, 199.379198)"><g><path d="M 17.890625 1.421875 C 16.242188 1.421875 15.328125 0.613281 15.140625 -1 C 14.953125 -2.382812 14.765625 -3.773438 14.578125 -5.171875 C 14.378906 -6.640625 14.28125 -8.023438 14.28125 -9.328125 C 14.28125 -9.671875 14.300781 -10.265625 14.34375 -11.109375 C 14.394531 -11.960938 14.421875 -12.5625 14.421875 -12.90625 C 14.421875 -13 14.429688 -13.234375 14.453125 -13.609375 C 14.484375 -13.992188 14.5 -14.3125 14.5 -14.5625 C 14.5 -15.664062 14.207031 -16.21875 13.625 -16.21875 C 12.394531 -16.21875 11.1875 -15.5 10 -14.0625 C 8.8125 -12.625 7.882812 -10.796875 7.21875 -8.578125 C 7.1875 -8.140625 7.125 -7.550781 7.03125 -6.8125 C 6.957031 -6.207031 6.921875 -5.617188 6.921875 -5.046875 C 6.921875 -4.671875 6.960938 -4.101562 7.046875 -3.34375 C 7.128906 -2.59375 7.171875 -2.03125 7.171875 -1.65625 C 7.171875 -0.882812 6.90625 -0.25 6.375 0.25 C 5.851562 0.75 5.1875 1 4.375 1 C 3.570312 1 2.910156 0.75 2.390625 0.25 C 1.867188 -0.25 1.609375 -0.882812 1.609375 -1.65625 C 1.609375 -2.03125 1.566406 -2.59375 1.484375 -3.34375 C 1.398438 -4.101562 1.359375 -4.671875 1.359375 -5.046875 C 1.359375 -6.328125 1.453125 -8.113281 1.640625 -10.40625 C 1.835938 -12.695312 1.9375 -14.488281 1.9375 -15.78125 C 1.9375 -16.1875 1.910156 -16.785156 1.859375 -17.578125 C 1.816406 -18.378906 1.796875 -18.972656 1.796875 -19.359375 C 1.796875 -20.109375 2.066406 -20.726562 2.609375 -21.21875 C 3.148438 -21.707031 3.816406 -21.953125 4.609375 -21.953125 C 6.359375 -21.953125 7.296875 -20.898438 7.421875 -18.796875 L 7.4375 -18.578125 C 9.394531 -20.546875 11.457031 -21.53125 13.625 -21.53125 C 16.164062 -21.53125 17.914062 -20.472656 18.875 -18.359375 C 19.519531 -16.929688 19.84375 -14.804688 19.84375 -11.984375 L 19.84375 -10.546875 C 19.832031 -9.929688 19.828125 -9.5 19.828125 -9.25 C 19.828125 -8.195312 19.96875 -6.847656 20.25 -5.203125 C 20.539062 -3.554688 20.6875 -2.21875 20.6875 -1.1875 C 20.6875 -0.4375 20.414062 0.179688 19.875 0.671875 C 19.34375 1.171875 18.679688 1.421875 17.890625 1.421875 Z M 17.890625 1.421875 "/></g></g></g><g fill="#00bf63" fill-opacity="1"><g transform="translate(173.373586, 199.379198)"><g><path d="M 20.6875 -11.984375 C 20.125 -8.828125 19.789062 -5.503906 19.6875 -2.015625 C 19.550781 2.316406 18.828125 5.460938 17.515625 7.421875 C 15.753906 10.035156 12.644531 11.34375 8.1875 11.34375 C 2.96875 11.34375 0.359375 10.3125 0.359375 8.25 C 0.359375 7.507812 0.59375 6.910156 1.0625 6.453125 C 1.53125 5.992188 2.148438 5.765625 2.921875 5.765625 C 3.515625 5.765625 4.375 5.878906 5.5 6.109375 C 6.632812 6.335938 7.632812 6.453125 8.5 6.453125 C 10.5 6.453125 11.972656 5.84375 12.921875 4.625 C 13.835938 3.425781 14.375 1.53125 14.53125 -1.0625 C 13.851562 -0.363281 13.082031 0.15625 12.21875 0.5 C 11.363281 0.851562 10.425781 1.03125 9.40625 1.03125 C 6.738281 1.03125 4.570312 0.160156 2.90625 -1.578125 C 1.238281 -3.316406 0.40625 -5.539062 0.40625 -8.25 C 0.40625 -11.882812 1.515625 -14.832031 3.734375 -17.09375 C 6.046875 -19.425781 9.164062 -20.59375 13.09375 -20.59375 C 14.351562 -20.59375 15.4375 -20.4375 16.34375 -20.125 C 17.257812 -19.8125 18 -19.34375 18.5625 -18.71875 C 20.257812 -18.519531 21.109375 -17.515625 21.109375 -15.703125 C 21.109375 -14.804688 20.96875 -13.566406 20.6875 -11.984375 Z M 12.890625 -16 C 10.617188 -16 8.851562 -15.253906 7.59375 -13.765625 C 6.46875 -12.410156 5.90625 -10.65625 5.90625 -8.5 C 5.90625 -6.90625 6.207031 -5.707031 6.8125 -4.90625 C 7.414062 -4.101562 8.320312 -3.703125 9.53125 -3.703125 C 10.625 -3.703125 11.726562 -4.335938 12.84375 -5.609375 C 13.894531 -6.816406 14.492188 -8.007812 14.640625 -9.1875 C 14.890625 -10.476562 15.179688 -12.484375 15.515625 -15.203125 C 15.066406 -15.460938 14.617188 -15.660156 14.171875 -15.796875 C 13.734375 -15.929688 13.304688 -16 12.890625 -16 Z M 12.890625 -16 "/></g></g></g><g fill="#00bf63" fill-opacity="1"><g transform="translate(195.221154, 199.379198)"><g><path d="M 18.953125 0.828125 C 17.898438 0.828125 17.097656 0.316406 16.546875 -0.703125 C 15.890625 -1.921875 14.90625 -3.363281 13.59375 -5.03125 C 11.550781 -7.613281 10.472656 -8.984375 10.359375 -9.140625 C 9.285156 -8.359375 8.398438 -7.757812 7.703125 -7.34375 C 7.566406 -5.476562 7.5 -3.691406 7.5 -1.984375 C 7.5 -1.210938 7.238281 -0.570312 6.71875 -0.0625 C 6.195312 0.445312 5.53125 0.703125 4.71875 0.703125 C 2.832031 0.703125 1.890625 -0.421875 1.890625 -2.671875 C 1.890625 -3.734375 1.96875 -5.316406 2.125 -7.421875 C 2.28125 -9.535156 2.359375 -11.125 2.359375 -12.1875 C 2.359375 -14.125 2.382812 -16.34375 2.4375 -18.84375 C 2.5 -21.34375 2.53125 -23.550781 2.53125 -25.46875 C 2.53125 -26.039062 2.5 -26.71875 2.4375 -27.5 C 2.382812 -28.289062 2.359375 -28.972656 2.359375 -29.546875 C 2.359375 -30.328125 2.617188 -30.96875 3.140625 -31.46875 C 3.660156 -31.96875 4.320312 -32.21875 5.125 -32.21875 C 5.925781 -32.21875 6.585938 -31.96875 7.109375 -31.46875 C 7.640625 -30.96875 7.90625 -30.328125 7.90625 -29.546875 C 7.90625 -28.960938 7.9375 -28.265625 8 -27.453125 C 8.070312 -26.648438 8.109375 -25.957031 8.109375 -25.375 C 8.109375 -23.78125 8.066406 -21.890625 7.984375 -19.703125 C 7.898438 -17.609375 7.863281 -15.742188 7.875 -14.109375 C 9.695312 -15.515625 12.472656 -18.078125 16.203125 -21.796875 C 16.796875 -22.378906 17.46875 -22.671875 18.21875 -22.671875 C 18.96875 -22.671875 19.628906 -22.394531 20.203125 -21.84375 C 20.773438 -21.300781 21.0625 -20.664062 21.0625 -19.9375 C 21.0625 -19.320312 20.800781 -18.726562 20.28125 -18.15625 C 18.695312 -16.382812 16.816406 -14.535156 14.640625 -12.609375 L 18.8125 -7.21875 C 20.84375 -4.519531 21.859375 -2.722656 21.859375 -1.828125 C 21.859375 -1.085938 21.5625 -0.460938 20.96875 0.046875 C 20.375 0.566406 19.703125 0.828125 18.953125 0.828125 Z M 18.953125 0.828125 "/></g></g></g><g fill="#00bf63" fill-opacity="1"><g transform="translate(217.450596, 199.379198)"><g><path d="M 19.65625 -11.625 C 19.65625 -10.71875 19.660156 -9.359375 19.671875 -7.546875 C 19.691406 -5.742188 19.703125 -4.394531 19.703125 -3.5 C 19.703125 -3.21875 19.722656 -2.796875 19.765625 -2.234375 C 19.816406 -1.679688 19.84375 -1.265625 19.84375 -0.984375 C 19.84375 -0.234375 19.570312 0.382812 19.03125 0.875 C 18.488281 1.363281 17.820312 1.609375 17.03125 1.609375 C 15.914062 1.609375 15.101562 1.101562 14.59375 0.09375 C 12.875 0.726562 11.097656 1.046875 9.265625 1.046875 C 7.359375 1.046875 5.757812 0.644531 4.46875 -0.15625 C 3 -1.082031 2.125 -2.429688 1.84375 -4.203125 C 1.320312 -7.554688 1.0625 -10.550781 1.0625 -13.1875 C 1.0625 -14.925781 1.265625 -16.914062 1.671875 -19.15625 C 1.941406 -20.675781 2.84375 -21.4375 4.375 -21.4375 C 5.15625 -21.4375 5.820312 -21.191406 6.375 -20.703125 C 6.925781 -20.210938 7.203125 -19.59375 7.203125 -18.84375 C 7.203125 -18.25 7.101562 -17.320312 6.90625 -16.0625 C 6.707031 -14.800781 6.609375 -13.84375 6.609375 -13.1875 C 6.609375 -11.300781 6.671875 -9.648438 6.796875 -8.234375 C 6.929688 -6.816406 7.125 -5.644531 7.375 -4.71875 C 7.707031 -4.570312 8.03125 -4.457031 8.34375 -4.375 C 8.664062 -4.300781 8.972656 -4.265625 9.265625 -4.265625 C 10.753906 -4.265625 12.390625 -4.476562 14.171875 -4.90625 C 14.171875 -5.9375 14.164062 -7.109375 14.15625 -8.421875 C 14.125 -9.992188 14.109375 -11.117188 14.109375 -11.796875 C 14.109375 -14.546875 14.238281 -16.921875 14.5 -18.921875 C 14.695312 -20.515625 15.609375 -21.3125 17.234375 -21.3125 C 18.023438 -21.3125 18.703125 -21.0625 19.265625 -20.5625 C 19.828125 -20.070312 20.085938 -19.453125 20.046875 -18.703125 C 19.785156 -13.585938 19.65625 -11.226562 19.65625 -11.625 Z M 19.65625 -11.625 "/></g></g></g></svg>